# xmcd
#
# Track frame offsets: 
#        150
#        28094
#        62420
#        94543
#        123641
#        146597
#        171558
#
# Disc length: 2971 seconds
#
# Revision: 5
# Processed by: cddbd v1.5.2PL0 Copyright (c) Steve Scherf et al.
# Submitted via: ExactAudioCopyFreeDBPlugin 1.0
#
DISCID=5f0b9907
DTITLE=Deep Purple - Nobody's Perfect [CD 1)
DYEAR=1988
DGENRE=Hard Rock
TTITLE0=Highway Star
TTITLE1=Strange Kind Of Woman
TTITLE2=Dead Or Alive
TTITLE3=Perfect Strangers
TTITLE4=Hard Lovin' Woman
TTITLE5=Bad Attitude
TTITLE6=Knocking At Your Back Door
EXTD=(C) 1988, 1989, Mercury Records (a Universal Music Company]\n(P) 
EXTD=1988, Thames records Ltd.\nPolydor 546 128-2 - LC00509\n\nVocals:
EXTD=Ian Gillan\nFender Guitars: Ritchie Blackmore\nOrgans and keyboa
EXTD=rds: Jon Lord\nDrums: Ian Paice\nBass: Roger Glover\n\nLive, reco
EXTD=rded on tour in 1987 YEAR: 1988
EXTT0=
EXTT1=
EXTT2=
EXTT3=
EXTT4=
EXTT5=
EXTT6=
PLAYORDER=
